<?xml version="1.0" standalone="no"?><!DOCTYPE svg PUBLIC "-//W3C//DTD SVG 1.1//EN" "http://www.w3.org/Graphics/SVG/1.1/DTD/svg11.dtd"><svg t="1575613761513" class="icon" viewBox="0 0 1024 1024" version="1.1" xmlns="http://www.w3.org/2000/svg" p-id="2401" xmlns:xlink="http://www.w3.org/1999/xlink" width="200" height="200"><defs><style type="text/css"></style></defs><path d="M794.481897 593.441682v341.038668a35.315862 35.315862 0 0 0 15.723938 29.379885l26.999895 17.99993a23.00391 23.00391 0 0 1 10.24196 19.137925c0 12.70195-10.29796 22.99991-22.99991 22.99991h-54.547787c-36.187859 0-66.52174-27.355893-70.245726-63.355753l-32.091875-310.222788c48.57381-5.339979 92.415639-26.031898 126.919505-56.977777z" fill="#625D6B" p-id="2402"></path><path d="M669.592384 670.069383c46.267819-3.033988 89.043652-18.635927 124.889513-43.66583v81.577681a314.97477 314.97477 0 0 1-117.619541 32.337874l-7.269972-70.249725z" fill="#504B5A" p-id="2403"></path><path d="M476.689138 653.239448v353.102621a17.657931 17.657931 0 0 0 17.655931 17.655931h35.309862a17.657931 17.657931 0 0 0 17.655931-17.655931V653.239448h-70.621724z" fill="#625D6B" p-id="2404"></path><path d="M476.689138 653.239448h70.619724v88.275655h-70.619724z" fill="#504B5A" p-id="2405"></path><path d="M229.518103 593.441682v341.038668a35.315862 35.315862 0 0 1-15.723938 29.379885l-26.999895 17.99993a23.00391 23.00391 0 0 0-10.24196 19.137925c0 12.69995 10.29796 22.99791 22.99991 22.99791h54.547787c36.187859 0 66.52174-27.355893 70.245726-63.355753L356.439608 650.417459c-48.57381-5.337979-92.415639-26.029898-126.921505-56.975777z" fill="#625D6B" p-id="2406"></path><path d="M354.407616 670.069383c-46.267819-3.033988-89.043652-18.635927-124.889513-43.66583v81.577681a314.97477 314.97477 0 0 0 117.619541 32.337874l7.269972-70.249725z" fill="#504B5A" p-id="2407"></path><path d="M935.723345 176.55131V17.655931A17.657931 17.657931 0 0 0 918.067414 0H882.757552a17.657931 17.657931 0 0 0-17.655931 17.655931v158.895379H158.898379V17.655931A17.657931 17.657931 0 0 0 141.242448 0H105.932586a17.657931 17.657931 0 0 0-17.655931 17.655931v158.895379c-19.499924 0-35.309862 15.807938-35.309862 35.309862 0 19.499924 15.809938 35.309862 35.309862 35.309862s35.309862 15.807938 35.309862 35.309863v141.241448c0 136.509467 110.661568 247.171034 247.171035 247.171034H653.238448c136.509467 0 247.171034-110.661568 247.171035-247.171034v-141.241448c0-19.501924 15.809938-35.309862 35.309862-35.309863s35.309862-15.809938 35.309862-35.309862c0.004-19.501924-15.803938-35.309862-35.305862-35.309862z" fill="#736F7B" p-id="2408"></path><path d="M353.103621 247.171034c-19.499924 0-35.309862-15.809938-35.309862-35.309862 0-19.501924 15.809938-35.309862 35.309862-35.309862H88.276655c-19.499924 0-35.309862 15.807938-35.309862 35.309862 0 19.499924 15.809938 35.309862 35.309862 35.309862 1.641994 0 2.753989 0.149999 3.647986 0.367999 17.761931 1.849993 31.661876 16.689935 31.661876 34.941864v141.241448c0 136.509467 110.661568 247.171034 247.171035 247.171034h223.633126c-108.069578 0-195.677236-110.661568-195.677235-247.171034v-123.585517a17.657931 17.657931 0 0 1 17.655931-17.655931h484.044109c0-19.501924 15.809938-35.309862 35.309862-35.309863H353.103621z" fill="#625D6B" p-id="2409"></path><path d="M123.588517 317.792759v105.931586c0 12.019953 1.149996 23.747907 2.807989 35.309862h771.206988c1.657994-11.561955 2.807989-23.289909 2.807989-35.309862v-105.931586H123.588517z" fill="#625D6B" p-id="2410"></path><path d="M398.713443 423.722345v-105.931586H123.588517v105.931586c0 12.019953 1.149996 23.747907 2.807989 35.309862h274.538928c-1.311995-11.561955-2.221991-23.287909-2.221991-35.309862z" fill="#504B5A" p-id="2411"></path></svg>