<?xml version="1.0" standalone="no"?><!DOCTYPE svg PUBLIC "-//W3C//DTD SVG 1.1//EN" "http://www.w3.org/Graphics/SVG/1.1/DTD/svg11.dtd"><svg t="1575613830217" class="icon" viewBox="0 0 1024 1024" version="1.1" xmlns="http://www.w3.org/2000/svg" p-id="2534" xmlns:xlink="http://www.w3.org/1999/xlink" width="200" height="200"><defs><style type="text/css"></style></defs><path d="M494.344 222.896h35.31v112.552h-35.31zM494.344 653.242h35.31v105.932h-35.31z" fill="#2c2c2c" p-id="2535"></path><path d="M437.104 705.656c-18.086 0-36.174-6.878-49.948-20.654-27.518-27.55-27.518-72.344 0-99.862l24.966-24.982-49.932-49.932-24.966 24.966c-27.568 27.568-72.344 27.536-99.88 0-27.518-27.55-27.518-72.344 0-99.862 27.536-27.536 72.312-27.568 99.88 0l24.966 24.966 49.932-49.932-24.966-24.982c-27.536-27.536-27.536-72.326 0-99.862 27.536-27.526 72.312-27.542 99.88 0L512 310.482l24.966-24.966c27.568-27.542 72.344-27.526 99.88 0 27.536 27.536 27.536 72.326 0 99.862L611.88 410.36l49.932 49.932 24.966-24.966c27.568-27.568 72.344-27.536 99.88 0 27.518 27.518 27.518 72.312 0 99.862-27.518 27.55-72.326 27.55-99.88 0l-24.966-24.966-49.932 49.932 24.966 24.982c27.518 27.518 27.518 72.312 0 99.862-27.518 27.55-72.326 27.55-99.88 0L512 660.036 487.032 685c-13.772 13.776-31.86 20.656-49.928 20.656z m0-120.518l-24.982 24.966c-13.758 13.758-13.758 36.156 0 49.932 13.81 13.776 36.206 13.742 49.948 0l24.966-24.966-49.932-49.932z m99.862 49.932l24.966 24.966c13.758 13.776 36.188 13.742 49.948 0 13.758-13.776 13.758-36.174 0-49.932l-24.982-24.966-49.932 49.932z m-74.898-74.914L512 610.102l49.932-49.948L512 510.226l-49.932 49.93z m74.898-74.896l49.93 49.932 49.948-49.932-49.948-49.932-49.93 49.932z m-149.812 0l49.948 49.932 49.932-49.932-49.932-49.932-49.948 49.932z m299.622 0l24.966 24.966c13.724 13.742 36.156 13.758 49.948 0 13.758-13.776 13.758-36.174 0-49.932-13.776-13.776-36.206-13.742-49.948 0l-24.966 24.966z m-424.468 24.966c13.81 13.758 36.206 13.758 49.948 0l24.966-24.966-24.966-24.966c-13.758-13.758-36.188-13.776-49.948 0-13.758 13.758-13.758 36.154 0 49.932z m199.76-99.864L512 460.296l49.932-49.932L512 360.416l-49.932 49.946z m74.898-74.914l49.93 49.932 24.982-24.966c13.758-13.758 13.758-36.174 0-49.932-13.758-13.776-36.188-13.802-49.948 0l-24.964 24.966z m-99.862-35.292c-9.052 0-18.104 3.44-24.982 10.328-13.758 13.758-13.758 36.174 0 49.932l24.982 24.966 49.932-49.934-24.966-24.966a35.2 35.2 0 0 0-24.966-10.326z" fill="#2c2c2c" p-id="2536"></path><path d="M511.998 776.828m-35.31 0a35.31 35.31 0 1 0 70.62 0 35.31 35.31 0 1 0-70.62 0Z" fill="#2c2c2c" p-id="2537"></path><path d="M512.058 812.138h-0.116c-19.926 0-36.524 15.274-38.18 35.13l-13.134 157.61c-0.858 10.296 7.262 19.122 17.594 19.122h67.556c10.328 0 18.452-8.828 17.594-19.12l-13.134-157.61c-1.656-19.858-18.256-35.132-38.18-35.132zM499.514 234.688l-45.652-45.652a17.656 17.656 0 0 1 0-24.968l45.652-45.652a17.656 17.656 0 0 1 24.968 0l45.652 45.652a17.656 17.656 0 0 1 0 24.968l-45.652 45.652a17.656 17.656 0 0 1-24.968 0z" fill="#2c2c2c" p-id="2538"></path><path d="M529.654 57.862V17.656c0-9.75-7.896-17.656-17.656-17.656s-17.656 7.906-17.656 17.656v40.208c-10.51 6.116-17.656 17.374-17.656 30.414 0 19.5 15.81 35.31 35.31 35.31s35.31-15.81 35.31-35.31c0.004-13.04-7.142-24.298-17.652-30.416z" fill="#2c2c2c" p-id="2539"></path></svg>